{"accessors" : [{"bufferView" : 0, "byteOffset" : 0, "componentType" : 5123, "count" : 2046, "type" : "SCALAR", "max" : [2045], "min" : [0]}, {"bufferView" : 1, "byteOffset" : 0, "componentType" : 5126, "count" : 2046, "type" : "VEC3", "max" : [2.39998197555542, 3.0182671546936035, 55.8997802734375], "min" : [-2.39998197555542, -3.0182666778564453, -0.12633228302001953], "name" : "POSITION"}, {"bufferView" : 1, "byteOffset" : 12, "componentType" : 5126, "count" : 2046, "type" : "VEC3", "max" : [0.9998417496681213, 1.0000044107437134, 1.0000044107437134], "min" : [-0.9998417496681213, -1.0000044107437134, -1.0000044107437134], "name" : "NORMAL"}, {"bufferView" : 1, "byteOffset" : 24, "componentType" : 5126, "count" : 2046, "type" : "VEC2", "max" : [0.9883651733398438, -0.10174497961997986], "min" : [0.015041191130876541, -0.977649986743927], "name" : "TEXCOORD_0"}, {"bufferView" : 0, "byteOffset" : 4092, "componentType" : 5123, "count" : 7764, "type" : "SCALAR", "max" : [7763], "min" : [0]}, {"bufferView" : 2, "byteOffset" : 0, "componentType" : 5126, "count" : 7764, "type" : "VEC3", "max" : [22.63117027282715, 3.4056267738342285, 26.47186279296875], "min" : [-24.452077865600586, -2.6659231185913086, -14.524710655212402], "name" : "POSITION"}, {"bufferView" : 2, "byteOffset" : 12, "componentType" : 5126, "count" : 7764, "type" : "VEC3", "max" : [0.9988285303115845, 1.0000044107437134, 1.0000044107437134], "min" : [-0.9979970455169678, -1.000001311302185, -0.9993153214454651], "name" : "NORMAL"}, {"bufferView" : 2, "byteOffset" : 24, "componentType" : 5126, "count" : 7764, "type" : "VEC2", "max" : [0.9879936575889587, -0.05325453728437424], "min" : [0.013081775046885014, -0.9689056277275085], "name" : "TEXCOORD_0"}], "asset" : {"generator" : "Aspose.3D 21.12", "version" : "2.0"}, "buffers" : [{"uri" : "data:application/octet-stream;base64,", "byteLength" : 333552}], "bufferViews" : [{"buffer" : 0, "byteOffset" : 0, "byteLength" : 19620, "target" : 34963}, {"buffer" : 0, "byteOffset" : 19624, "byteLength" : 65472, "byteStride" : 32, "target" : 34962}, {"buffer" : 0, "byteOffset" : 85100, "byteLength" : 248448, "byteStride" : 32, "target" : 34962}], "images" : [{"uri" : "E:\\CGI\\Blender\\Marketplace\\POS\\WInd Turbine\\PBR Mats\\WindTurbine_01_DefaultMaterial_Normal.png"}, {"uri" : "E:\\CGI\\Blender\\Marketplace\\POS\\WInd Turbine\\PBR Mats\\WindTurbine_01_DefaultMaterial_BaseColor.png"}], "materials" : [{"name" : "", "pbrMetallicRoughness" : {"baseColorFactor" : [0.800000011920929, 0.800000011920929, 0.800000011920929, 1], "baseColorTexture" : {"index" : 1, "texCoord" : 0}, "metallicFactor" : 0, "roughnessFactor" : 0}, "normalTexture" : {"index" : 0, "texCoord" : 0, "scale" : 1}, "emissiveFactor" : [0, 0, 0], "alphaMode" : "OPAQUE", "doubleSided" : false}, {"name" : "", "pbrMetallicRoughness" : {"baseColorFactor" : [0.800000011920929, 0.800000011920929, 0.800000011920929, 1], "baseColorTexture" : {"index" : 1, "texCoord" : 0}, "metallicFactor" : 0, "roughnessFactor" : 0}, "normalTexture" : {"index" : 0, "texCoord" : 0, "scale" : 1}, "emissiveFactor" : [0, 0, 0], "alphaMode" : "OPAQUE", "doubleSided" : false}], "meshes" : [{"primitives" : [{"attributes" : {"POSITION" : 1, "NORMAL" : 2, "TEXCOORD_0" : 3}, "indices" : 0, "material" : 0, "mode" : 4}], "name" : "Cylinder"}, {"primitives" : [{"attributes" : {"POSITION" : 5, "NORMAL" : 6, "TEXCOORD_0" : 7}, "indices" : 4, "material" : 1, "mode" : 4}], "name" : "Cylinder.001"}], "nodes" : [{"matrix" : [100, 0, 0, 0, 0, -1.6292067961387602E-05, -99.99999999999868, 0, 0, 99.99999999999868, -1.6292067961387602E-05, 0, 0, -5.216503143310547, 0, 1], "mesh" : 0, "name" : "Main Unit"}, {"matrix" : [-40.045990674097844, -91.63142818340259, 0, 0, 6.917980360787723E-06, -3.023388184253406E-06, -99.99999999999972, 0, 91.63142818340233, -40.045990674097744, 7.549789970973109E-06, 0, -7.495340824127197, 5307.87353515625, 480.8947448730469, 1], "mesh" : 1, "name" : "Blades"}], "samplers" : [{"magFilter" : 9729, "minFilter" : 9729, "wrapS" : 10497, "wrapT" : 10497}, {"magFilter" : 9729, "minFilter" : 9729, "wrapS" : 10497, "wrapT" : 10497}], "scene" : 0, "scenes" : [{"nodes" : [0, 1]}], "textures" : [{"sampler" : 0, "source" : 0}, {"sampler" : 1, "source" : 1}]}